<?xml version="1.0" encoding="utf-8"?>
<!-- Svg Vector Icons : http://www.onlinewebfonts.com/icon -->
<!DOCTYPE svg PUBLIC "-//W3C//DTD SVG 1.1//EN" "http://www.w3.org/Graphics/SVG/1.1/DTD/svg11.dtd">
<svg version="1.1" xmlns="http://www.w3.org/2000/svg" xmlns:xlink="http://www.w3.org/1999/xlink" x="0px" y="0px" viewBox="0 0 256 256" enable-background="new 0 0 256 256" xml:space="preserve">
<metadata> Svg Vector Icons : http://www.onlinewebfonts.com/icon </metadata>
<g> <path fill="#000000" d="M206.7,10H49.3C27.6,10.1,10.1,27.6,10,49.3v157.3c0,21.6,17.7,39.3,39.3,39.3h157.3 c21.6,0,39.3-17.7,39.3-39.3V49.3C246,27.7,228.3,10,206.7,10z M185.2,175.7c-2,4.7-5.1,8.9-9.1,12.1c-4.1,3.3-9.4,6.1-15.8,8.1 c-6.4,2-14.1,3-22.9,3H74.1V61.3H141c12.4,0,22.3,2.8,29.7,8.5c7.5,5.7,11.2,14.2,11.2,25.7c0,6.9-1.7,12.9-5.1,17.8 c-3.4,4.9-8.3,8.7-14.6,11.4v0.5c8.4,1.8,14.9,5.8,19.2,11.9c4.3,6.2,6.5,14,6.5,23.5c0,5.3-1,10.3-3,15L185.2,175.7L185.2,175.7z  M157.9,141.8c-4-3.7-9.7-5.5-17-5.5H98.4v43H141c7.3,0,13-1.9,17-5.7c4-3.8,6.1-9.2,6.1-16.1c-0.1-6.8-2.1-12-6.1-15.6H157.9 L157.9,141.8z M152,114.1c3.9-3.3,5.8-8,5.8-14.2c0-6.9-1.7-11.8-5.2-14.7c-3.5-2.8-8.5-4.3-15-4.3H98.2v38h39.3 C143.3,118.9,148.1,117.3,152,114.1L152,114.1z"/></g>
</svg>