<?xml version="1.0" encoding="utf-8"?>
<!-- Svg Vector Icons : http://www.onlinewebfonts.com/icon -->
<!DOCTYPE svg PUBLIC "-//W3C//DTD SVG 1.1//EN" "http://www.w3.org/Graphics/SVG/1.1/DTD/svg11.dtd">
<svg version="1.1" xmlns="http://www.w3.org/2000/svg" xmlns:xlink="http://www.w3.org/1999/xlink" x="0px" y="0px" viewBox="0 0 256 256" enable-background="new 0 0 256 256" xml:space="preserve">
<metadata> Svg Vector Icons : http://www.onlinewebfonts.com/icon </metadata>
<g><g><g><path fill="#000000" d="M25,12.2c0.1,1.2,4.6,48.4,9.8,105c5.2,56.5,9.6,102.9,9.6,103c0.1,0,18.9,5.9,41.9,13L128,246l22.7-7c48.6-15,60.8-18.8,61-18.9c0.1-0.1,2.1-21.7,13.4-143c3.1-34.2,5.9-63.3,6-64.7l0.3-2.4H128H24.7L25,12.2z M192.9,55.9c-0.1,1.5-2.8,31.2-5.9,66c-3.1,34.8-5.8,63.5-5.9,63.7c-0.1,0.2-12.1,3.5-26.5,7.5l-26.3,7.1l-26.5-7.1c-14.6-3.9-26.6-7.3-26.8-7.5c-0.3-0.3-3.6-37.7-3.6-40.1v-1l13,0.1l13,0.1l0.9,10.1c0.5,5.6,0.9,10.2,0.9,10.2c0,0,6.5,1.8,14.5,4l14.4,3.9l14.1-3.9c7.7-2.1,14.2-4,14.4-4.1c0.4-0.3,3.3-33,3-33.6c-0.1-0.2-13.5-0.3-29.6-0.3h-29.5l-0.2-1.1c-0.1-0.6-0.6-5.7-1-11.4c-0.4-5.7-0.8-11.1-1-11.9l-0.2-1.5h32.1c19.6,0,32-0.2,32-0.4c0-0.3,0.5-6.2,1.2-13.2c0.6-7,1.2-12.9,1.2-12.9c0,0-22.3-0.1-49.5-0.1H65.4l-0.2-2c-0.1-1.1-0.6-5.8-1-10.5c-0.4-4.7-0.8-9.5-1-10.7l-0.3-2.2H128h65.1L192.9,55.9z"/></g></g></g>
</svg>